<svg xmlns="http://www.w3.org/2000/svg" width="207.66" height="39.758" viewBox="0 0 207.66 39.758"><defs><clipPath id="a"><path data-name="Rectangle 1002" fill="none" d="M0 0h207.66v39.758H0z"/></clipPath><clipPath id="b"><path data-name="Rectangle 1000" fill="none" d="M0 0h158.226v19.893H0z"/></clipPath></defs><g data-name="Group 2791" clip-path="url(#a)"><path data-name="Rectangle 989" d="M19.896 15.797a4.095 4.095 0 0 1 4.095 4.095 4.093 4.093 0 0 1-4.093 4.093 4.093 4.093 0 0 1-4.095-4.093 4.093 4.093 0 0 1 4.093-4.095z" fill="#f18700"/><path data-name="Rectangle 990" d="M11.853 17.394a2.5 2.5 0 0 1 2.5 2.5 2.5 2.5 0 0 1-2.5 2.5 2.5 2.5 0 0 1-2.5-2.5 2.5 2.5 0 0 1 2.5-2.5z" fill="#f18700"/><path data-name="Path 4896" d="M7.97 20.914a1.025 1.025 0 0 1-1.024 1.025H4.899a1.024 1.024 0 0 1-1.023-1.025v-2.046a1.023 1.023 0 0 1 1.023-1.023h2.047a1.024 1.024 0 0 1 1.024 1.023z" fill="#f18700"/><rect data-name="Rectangle 991" width="2.559" height="2.559" rx="1.279" transform="translate(0 18.612)" fill="#f18700"/><path data-name="Path 4897" d="M15.244 13.985a1.249 1.249 0 0 1-1.248 1.247h-2.5a1.248 1.248 0 0 1-1.249-1.247v-2.5a1.247 1.247 0 0 1 1.251-1.247h2.5a1.248 1.248 0 0 1 1.248 1.248z" fill="#f18700"/><path data-name="Path 4898" d="M9.912 8.94a1.023 1.023 0 0 1-1.024 1.022H6.842A1.023 1.023 0 0 1 5.818 8.94V6.892a1.023 1.023 0 0 1 1.024-1.024h2.046a1.023 1.023 0 0 1 1.024 1.024z" fill="#f18700"/><path data-name="Path 4899" d="M5.458 4.807a.641.641 0 0 1-.639.641H3.538a.641.641 0 0 1-.639-.641V3.53a.641.641 0 0 1 .639-.641h1.28a.641.641 0 0 1 .639.641z" fill="#f18700"/><path data-name="Rectangle 992" d="M19.897 0a1.28 1.28 0 0 1 1.28 1.28 1.28 1.28 0 0 1-1.28 1.28 1.279 1.279 0 0 1-1.279-1.28A1.279 1.279 0 0 1 19.897 0z" fill="#f18700"/><path data-name="Path 4900" d="M21.943 6.891a1.024 1.024 0 0 1-1.024 1.023h-2.045a1.023 1.023 0 0 1-1.023-1.023V4.845a1.024 1.024 0 0 1 1.023-1.025h2.047a1.025 1.025 0 0 1 1.022 1.025z" fill="#f18700"/><path data-name="Path 4901" d="M22.395 13.105a1.25 1.25 0 0 1-1.249 1.249h-2.5a1.249 1.249 0 0 1-1.247-1.249v-2.5a1.248 1.248 0 0 1 1.247-1.249h2.5a1.249 1.249 0 0 1 1.249 1.249z" fill="#f18700"/><path data-name="Rectangle 993" d="M27.038 10.228a2.5 2.5 0 0 1 2.5 2.5 2.5 2.5 0 0 1-2.5 2.5 2.5 2.5 0 0 1-2.5-2.5 2.5 2.5 0 0 1 2.5-2.5z" fill="#f18700"/><path data-name="Rectangle 994" d="M31.878 5.885a2.046 2.046 0 0 1 2.048 2.046 2.046 2.046 0 0 1-2.046 2.048 2.048 2.048 0 0 1-2.048-2.048 2.046 2.046 0 0 1 2.046-2.046z" fill="#f18700"/><path data-name="Rectangle 995" d="M35.584 2.889a1.278 1.278 0 0 1 1.283 1.278 1.279 1.279 0 0 1-1.279 1.281 1.28 1.28 0 0 1-1.28-1.28 1.276 1.276 0 0 1 1.276-1.279z" fill="#f18700"/><path data-name="Rectangle 996" d="M27.947 17.394a2.5 2.5 0 0 1 2.5 2.5 2.5 2.5 0 0 1-2.5 2.5 2.5 2.5 0 0 1-2.5-2.5 2.5 2.5 0 0 1 2.5-2.5z" fill="#f18700"/><path data-name="Path 4902" d="M35.901 20.916a1.024 1.024 0 0 1-1.022 1.023H32.83a1.024 1.024 0 0 1-1.023-1.023v-2.047a1.024 1.024 0 0 1 1.023-1.024h2.049a1.023 1.023 0 0 1 1.022 1.024z" fill="#f18700"/><path data-name="Path 4903" d="M39.775 20.532a.638.638 0 0 1-.637.638H37.86a.64.64 0 0 1-.641-.638V19.25a.639.639 0 0 1 .641-.638h1.281a.637.637 0 0 1 .637.638z" fill="#f18700"/><path data-name="Path 4904" d="M36.897 36.248a.64.64 0 0 1-.641.639h-1.28a.638.638 0 0 1-.638-.639v-1.28a.638.638 0 0 1 .638-.64h1.28a.64.64 0 0 1 .641.64z" fill="#f18700"/><path data-name="Path 4905" d="M33.906 32.912a1.023 1.023 0 0 1-1.023 1.022h-2.047a1.024 1.024 0 0 1-1.024-1.022v-2.049a1.024 1.024 0 0 1 1.024-1.023h2.047a1.023 1.023 0 0 1 1.023 1.023z" fill="#f18700"/><path data-name="Path 4906" d="M29.585 28.335a1.25 1.25 0 0 1-1.251 1.249h-2.5a1.25 1.25 0 0 1-1.244-1.249v-2.5a1.247 1.247 0 0 1 1.244-1.246h2.5a1.247 1.247 0 0 1 1.251 1.246z" fill="#f18700"/><path data-name="Rectangle 997" d="M19.9 25.432a2.5 2.5 0 0 1 2.5 2.5 2.5 2.5 0 0 1-2.5 2.5 2.5 2.5 0 0 1-2.5-2.5 2.5 2.5 0 0 1 2.5-2.5z" fill="#f18700"/><path data-name="Path 4907" d="M15.206 28.335a1.248 1.248 0 0 1-1.248 1.247h-2.5a1.248 1.248 0 0 1-1.247-1.247v-2.5a1.25 1.25 0 0 1 1.248-1.249h2.5a1.25 1.25 0 0 1 1.247 1.249z" fill="#f18700"/><path data-name="Rectangle 998" d="M7.882 29.84h.005a2.045 2.045 0 0 1 2.045 2.045 2.047 2.047 0 0 1-2.047 2.049 2.047 2.047 0 0 1-2.047-2.047 2.044 2.044 0 0 1 2.044-2.047z" fill="#f18700"/><path data-name="Rectangle 999" d="M4.176 34.328a1.277 1.277 0 0 1 1.282 1.277 1.279 1.279 0 0 1-1.28 1.282 1.279 1.279 0 0 1-1.279-1.28 1.277 1.277 0 0 1 1.277-1.279z" fill="#f18700"/><path data-name="Path 4908" d="M21.177 39.117a.64.64 0 0 1-.64.641h-1.276a.64.64 0 0 1-.64-.641v-1.28a.639.639 0 0 1 .64-.638h1.279a.639.639 0 0 1 .64.638z" fill="#f18700"/><path data-name="Path 4909" d="M21.943 34.885a1.024 1.024 0 0 1-1.024 1.024h-2.045a1.024 1.024 0 0 1-1.023-1.024V32.84a1.025 1.025 0 0 1 1.023-1.024h2.047a1.025 1.025 0 0 1 1.022 1.024z" fill="#f18700"/><g data-name="Group 2788" clip-path="url(#b)" fill="#2c1c09" transform="translate(49.434 10.29)" opacity=".65"><path data-name="Path 4910" d="M0 19.539V.345h2.143v8.533h9.26V.345h2.144v19.194h-2.144v-8.77h-9.26v8.77z"/><path data-name="Path 4911" d="M23.639 12.805L17.456.346h2.334l4.917 10.375L29.615.346h2.332l-6.166 12.459v6.734h-2.144z"/><path data-name="Path 4912" d="M40.902.346c2.7 0 3.974.319 5.168 1.227a5.854 5.854 0 0 1 2.049 4.563 5.969 5.969 0 0 1-1.971 4.546c-1.288.994-2.585 1.313-5.065 1.313h-3.1v7.544h-2.144V.346zm-2.918 9.755h3.077a5.865 5.865 0 0 0 3.541-.806 4.086 4.086 0 0 0-.017-6.249 5.945 5.945 0 0 0-3.584-.805h-3.013z"/><path data-name="Path 4913" d="M52.285.345h10.642v1.9h-8.5v6.659h8.437v1.895h-8.437v6.85h8.5v1.895H52.285z"/><path data-name="Path 4914" d="M68.106.346h5.011c2.991 0 4.408.354 5.385.993a6.014 6.014 0 0 1 2.629 5.153 6.205 6.205 0 0 1-1.133 3.753 5.338 5.338 0 0 1-4.294 2.118l4.766 7.176h-2.335l-5.422-8.375h.631c1.349 0 3.228-.034 4.257-.987a4.679 4.679 0 0 0 1.454-3.522 4.5 4.5 0 0 0-1.9-3.722c-.961-.615-2.155-.692-3.888-.692h-3.012v17.3h-2.149z"/><path data-name="Path 4915" d="M101.531 5.321a8.532 8.532 0 0 0-2.139-2.077 7.919 7.919 0 0 0-12.341 6.673 7.818 7.818 0 0 0 7.884 8.082 8.281 8.281 0 0 0 5.141-1.74 6.98 6.98 0 0 0 2.589-4h-9.548v-1.766h12.045a9.741 9.741 0 0 1-.847 3.712 10.314 10.314 0 0 1-9.372 5.688A9.947 9.947 0 1 1 94.968 0a10.07 10.07 0 0 1 9.008 5.321z"/><path data-name="Path 4916" d="M110.039.345h10.643v1.9h-8.5v6.659h8.438v1.895h-8.437v6.85h8.5v1.895h-10.644z"/><path data-name="Path 4917" d="M139.379 16.362L139.345.345h2.076V19.54h-2.068L127.971 3.393l.034 16.147h-2.076V.346h2.181z"/><path data-name="Path 4918" d="M147.584.345h10.642v1.9h-8.5v6.659h8.438v1.895h-8.438v6.85h8.5v1.895h-10.642z"/></g></g></svg>